<svg width="64" height="64" viewBox="0 0 64 64" fill="none" xmlns="http://www.w3.org/2000/svg">
<path d="M0 8.44183C0 6.43555 1.48623 4.73965 3.47517 4.47641L29.4752 1.03524C31.8719 0.718024 34 2.58305 34 5.00065V29.4364H0V8.44183Z" fill="#0066FF"/>
<path d="M0 54.4309C0 56.4372 1.48623 58.1331 3.47517 58.3963L29.4752 61.8375C31.8719 62.1547 34 60.2897 34 57.8721V33.4364H0V54.4309Z" fill="#0066FF"/>
<path d="M38 12.434C38 10.4311 39.4814 8.73695 41.4664 8.46974L59.4663 6.04666C61.8659 5.72364 64 7.58972 64 10.0109V29.4364H38V12.434Z" fill="#0066FF"/>
<path d="M38 50.4387C38 52.4416 39.4814 54.1358 41.4664 54.403L59.4663 56.8261C61.8659 57.1491 64 55.283 64 52.8618V33.4364H38V50.4387Z" fill="#0066FF"/>
<rect x="19" y="45" width="45" height="19" rx="3" fill="#FFC700"/>
<path d="M34.7305 59.6265C33.9639 59.9976 32.9629 60.1831 31.7275 60.1831C30.1162 60.1831 28.8491 59.7095 27.9263 58.7622C27.0034 57.8149 26.542 56.5527 26.542 54.9756C26.542 53.2959 27.0596 51.9336 28.0947 50.8887C29.1348 49.8438 30.4824 49.3213 32.1377 49.3213C33.1631 49.3213 34.0273 49.4507 34.7305 49.7095V51.9873C34.0273 51.5674 33.2266 51.3574 32.3281 51.3574C31.3418 51.3574 30.5459 51.6675 29.9404 52.2876C29.335 52.9077 29.0322 53.7476 29.0322 54.8071C29.0322 55.8228 29.3179 56.6333 29.8892 57.2388C30.4604 57.8394 31.2295 58.1396 32.1963 58.1396C33.1191 58.1396 33.9639 57.915 34.7305 57.4658V59.6265ZM45.7974 60H43.2192L42.4722 57.6636H38.7368L37.9971 60H35.4336L39.2568 49.4971H42.062L45.7974 60ZM41.9302 55.8472L40.8022 52.3169C40.7192 52.0532 40.6606 51.7383 40.6265 51.3721H40.5679C40.5435 51.6797 40.4824 51.9849 40.3848 52.2876L39.2422 55.8472H41.9302ZM56.5566 60H54.1689L49.8403 53.4009C49.5864 53.0151 49.4106 52.7246 49.313 52.5293H49.2837C49.3228 52.9004 49.3423 53.4668 49.3423 54.2285V60H47.1084V49.4971H49.6572L53.8247 55.8911C54.0151 56.1792 54.1909 56.4648 54.3521 56.748H54.3813C54.3423 56.5039 54.3228 56.0229 54.3228 55.3052V49.4971H56.5566V60Z" fill="black"/>
</svg>
