<svg width="64" height="64" viewBox="0 0 64 64" fill="none" xmlns="http://www.w3.org/2000/svg">
<path d="M0 8.44183C0 6.43555 1.48623 4.73965 3.47517 4.47641L29.4752 1.03524C31.8719 0.718024 34 2.58305 34 5.00065V29.4364H0V8.44183Z" fill="#0066FF"/>
<path d="M0 8.44183C0 6.43555 1.48623 4.73965 3.47517 4.47641L29.4752 1.03524C31.8719 0.718024 34 2.58305 34 5.00065V29.4364H0V8.44183Z" fill="url(#paint0_linear)"/>
<path d="M0 54.4309C0 56.4372 1.48623 58.1331 3.47517 58.3963L29.4752 61.8375C31.8719 62.1547 34 60.2897 34 57.8721V33.4364H0V54.4309Z" fill="#0066FF"/>
<path d="M0 54.4309C0 56.4372 1.48623 58.1331 3.47517 58.3963L29.4752 61.8375C31.8719 62.1547 34 60.2897 34 57.8721V33.4364H0V54.4309Z" fill="url(#paint1_linear)"/>
<path d="M38 12.434C38 10.4311 39.4814 8.73695 41.4664 8.46974L59.4663 6.04666C61.8659 5.72364 64 7.58972 64 10.0109V29.4364H38V12.434Z" fill="#0066FF"/>
<path d="M38 12.434C38 10.4311 39.4814 8.73695 41.4664 8.46974L59.4663 6.04666C61.8659 5.72364 64 7.58972 64 10.0109V29.4364H38V12.434Z" fill="url(#paint2_linear)"/>
<path d="M38 50.4387C38 52.4416 39.4814 54.1358 41.4664 54.403L59.4663 56.8261C61.8659 57.1491 64 55.283 64 52.8618V33.4364H38V50.4387Z" fill="#0066FF"/>
<path d="M38 50.4387C38 52.4416 39.4814 54.1358 41.4664 54.403L59.4663 56.8261C61.8659 57.1491 64 55.283 64 52.8618V33.4364H38V50.4387Z" fill="url(#paint3_linear)"/>
<defs>
<linearGradient id="paint0_linear" x1="0" y1="1" x2="64" y2="62" gradientUnits="userSpaceOnUse">
<stop stop-color="#0077FF"/>
<stop offset="1" stop-color="#0055DD"/>
</linearGradient>
<linearGradient id="paint1_linear" x1="0" y1="1" x2="64" y2="62" gradientUnits="userSpaceOnUse">
<stop stop-color="#0077FF"/>
<stop offset="1" stop-color="#0055DD"/>
</linearGradient>
<linearGradient id="paint2_linear" x1="0" y1="1" x2="64" y2="62" gradientUnits="userSpaceOnUse">
<stop stop-color="#0077FF"/>
<stop offset="1" stop-color="#0055DD"/>
</linearGradient>
<linearGradient id="paint3_linear" x1="0" y1="1" x2="64" y2="62" gradientUnits="userSpaceOnUse">
<stop stop-color="#0077FF"/>
<stop offset="1" stop-color="#0055DD"/>
</linearGradient>
</defs>
</svg>
