<svg width="64" height="64" viewBox="0 0 64 64" fill="none" xmlns="http://www.w3.org/2000/svg">
<path d="M0 8.44183C0 6.43555 1.48623 4.73965 3.47517 4.47641L29.4752 1.03524C31.8719 0.718024 34 2.58305 34 5.00065V29.4364H0V8.44183Z" fill="#0066FF"/>
<path d="M0 54.4309C0 56.4372 1.48623 58.1331 3.47517 58.3963L29.4752 61.8375C31.8719 62.1547 34 60.2897 34 57.8721V33.4364H0V54.4309Z" fill="#0066FF"/>
<path d="M38 12.434C38 10.4311 39.4814 8.73695 41.4664 8.46974L59.4663 6.04666C61.8659 5.72364 64 7.58972 64 10.0109V29.4364H38V12.434Z" fill="#0066FF"/>
<path d="M38 50.4387C38 52.4416 39.4814 54.1358 41.4664 54.403L59.4663 56.8261C61.8659 57.1491 64 55.283 64 52.8618V33.4364H38V50.4387Z" fill="#0066FF"/>
<rect x="19" y="45" width="45" height="19" rx="3" fill="#9BF00B"/>
<path d="M27.2012 60V49.4971H30.9219C34.6523 49.4971 36.5176 51.2036 36.5176 54.6167C36.5176 56.2524 36.0073 57.5586 34.9868 58.5352C33.9712 59.5117 32.6162 60 30.9219 60H27.2012ZM29.5669 51.4233V58.0811H30.7388C31.7642 58.0811 32.5674 57.7734 33.1484 57.1582C33.7344 56.543 34.0273 55.7056 34.0273 54.646C34.0273 53.645 33.7368 52.8589 33.1558 52.2876C32.5796 51.7114 31.769 51.4233 30.7241 51.4233H29.5669ZM44.5596 60H38.2607V49.4971H44.3179V51.4233H40.6265V53.7598H44.0615V55.6787H40.6265V58.0811H44.5596V60ZM55.0625 49.4971L51.4443 60H48.7637L45.1895 49.4971H47.7383L49.9282 56.8066C50.0454 57.2021 50.1162 57.5513 50.1406 57.854H50.1846C50.2188 57.5269 50.2944 57.168 50.4116 56.7773L52.5869 49.4971H55.0625Z" fill="black"/>
</svg>
