<svg width="64" height="61" viewBox="0 0 64 61" fill="none" xmlns="http://www.w3.org/2000/svg">
<path d="M0 7.44183C0 5.43555 1.48623 3.73965 3.47517 3.47641L29.4752 0.0352352C31.8719 -0.281976 34 1.58305 34 4.00065V28.4364H0V7.44183Z" fill="white"/>
<path d="M0 53.4309C0 55.4372 1.48623 57.1331 3.47517 57.3963L29.4752 60.8375C31.8719 61.1547 34 59.2897 34 56.8721V32.4364H0V53.4309Z" fill="white"/>
<path d="M38 11.434C38 9.43108 39.4814 7.73695 41.4664 7.46974L59.4663 5.04666C61.8659 4.72364 64 6.58972 64 9.0109V28.4364H38V11.434Z" fill="white"/>
<path d="M38 49.4387C38 51.4416 39.4814 53.1358 41.4664 53.403L59.4663 55.8261C61.8659 56.1491 64 54.283 64 51.8618V32.4364H38V49.4387Z" fill="white"/>
</svg>
