<svg width="64" height="64" viewBox="0 0 64 64" fill="none" xmlns="http://www.w3.org/2000/svg">
<path fill-rule="evenodd" clip-rule="evenodd" d="M3.47517 4.47641C1.48623 4.73965 0 6.43555 0 8.44183V29.4364H34V5.00065C34 2.58305 31.8719 0.718024 29.4752 1.03524L3.47517 4.47641ZM3.47517 58.3963C1.48623 58.1331 0 56.4372 0 54.4309V33.4364H34V43H21C18.7909 43 17 44.7909 17 47V60.1864L3.47517 58.3963ZM64 43.5351V33.4364H38V43H62C62.7286 43 63.4117 43.1948 64 43.5351ZM38 12.434C38 10.4311 39.4814 8.73695 41.4664 8.46974L59.4663 6.04666C61.8659 5.72364 64 7.58972 64 10.0109V29.4364H38V12.434Z" fill="#222222"/>
<path fill-rule="evenodd" clip-rule="evenodd" d="M22 45C20.3431 45 19 46.3431 19 48V61C19 62.6569 20.3431 64 22 64H61C62.6569 64 64 62.6569 64 61V48C64 46.3431 62.6569 45 61 45H22ZM27.2012 49.4971V60H30.9219C32.6162 60 33.9712 59.5117 34.9868 58.5352C36.0073 57.5586 36.5176 56.2524 36.5176 54.6167C36.5176 51.2036 34.6523 49.4971 30.9219 49.4971H27.2012ZM29.5669 58.0811V51.4233H30.7241C31.769 51.4233 32.5796 51.7114 33.1558 52.2876C33.7368 52.8589 34.0273 53.645 34.0273 54.646C34.0273 55.7056 33.7344 56.543 33.1484 57.1582C32.5674 57.7734 31.7642 58.0811 30.7388 58.0811H29.5669ZM38.2607 60H44.5596V58.0811H40.6265V55.6787H44.0615V53.7598H40.6265V51.4233H44.3179V49.4971H38.2607V60ZM51.4443 60L55.0625 49.4971H52.5869L50.4116 56.7773C50.2944 57.168 50.2188 57.5269 50.1846 57.854H50.1406C50.1162 57.5513 50.0454 57.2021 49.9282 56.8066L47.7383 49.4971H45.1895L48.7637 60H51.4443Z" fill="#222222"/>
</svg>
