<svg width="64" height="64" viewBox="0 0 64 64" fill="none" xmlns="http://www.w3.org/2000/svg">
<path fill-rule="evenodd" clip-rule="evenodd" d="M3.47517 4.47641C1.48623 4.73965 0 6.43555 0 8.44183V29.4364H34V5.00065C34 2.58305 31.8719 0.718024 29.4752 1.03524L3.47517 4.47641ZM3.47517 58.3963C1.48623 58.1331 0 56.4372 0 54.4309V33.4364H34V43H21C18.7909 43 17 44.7909 17 47V60.1864L3.47517 58.3963ZM64 43.5351V33.4364H38V43H62C62.7286 43 63.4117 43.1948 64 43.5351ZM38 12.434C38 10.4311 39.4814 8.73695 41.4664 8.46974L59.4663 6.04666C61.8659 5.72364 64 7.58972 64 10.0109V29.4364H38V12.434Z" fill="#222222"/>
<path fill-rule="evenodd" clip-rule="evenodd" d="M22 45C20.3431 45 19 46.3431 19 48V61C19 62.6569 20.3431 64 22 64H61C62.6569 64 64 62.6569 64 61V48C64 46.3431 62.6569 45 61 45H22ZM31.7275 60.1831C32.9629 60.1831 33.9639 59.9976 34.7305 59.6265V57.4658C33.9639 57.915 33.1191 58.1396 32.1963 58.1396C31.2295 58.1396 30.4604 57.8394 29.8892 57.2388C29.3179 56.6333 29.0322 55.8228 29.0322 54.8071C29.0322 53.7476 29.335 52.9077 29.9404 52.2876C30.5459 51.6675 31.3418 51.3574 32.3281 51.3574C33.2266 51.3574 34.0273 51.5674 34.7305 51.9873V49.7095C34.0273 49.4507 33.1631 49.3213 32.1377 49.3213C30.4824 49.3213 29.1348 49.8438 28.0947 50.8887C27.0596 51.9336 26.542 53.2959 26.542 54.9756C26.542 56.5527 27.0034 57.8149 27.9263 58.7622C28.8491 59.7095 30.1162 60.1831 31.7275 60.1831ZM43.2192 60H45.7974L42.062 49.4971H39.2568L35.4336 60H37.9971L38.7368 57.6636H42.4722L43.2192 60ZM40.8022 52.3169L41.9302 55.8472H39.2422L40.3848 52.2876C40.4824 51.9849 40.5435 51.6797 40.5679 51.3721H40.6265C40.6606 51.7383 40.7192 52.0532 40.8022 52.3169ZM54.1689 60H56.5566V49.4971H54.3228V55.3052C54.3228 56.0229 54.3423 56.5039 54.3813 56.748H54.3521C54.1909 56.4648 54.0151 56.1792 53.8247 55.8911L49.6572 49.4971H47.1084V60H49.3423V54.2285C49.3423 53.4668 49.3228 52.9004 49.2837 52.5293H49.313C49.4106 52.7246 49.5864 53.0151 49.8403 53.4009L54.1689 60Z" fill="#222222"/>
</svg>
